# xmcd
#
# Track frame offsets: 
#        150
#        19177
#        43889
#        66526
#        87546
#        101140
#        121965
#        142512
#        167293
#        186446
#
# Disc length: 2817 seconds
#
# Revision: 0
# Processed by: cddbd v1.5.2PL0 Copyright (c) Steve Scherf et al.
# Submitted via: ExactAudioCopy v1.0b3
#
DISCID=890aff0a
DTITLE=Various Artist - Rong Choi Dem Giao Thua
DYEAR=1997
DGENRE=
TTITLE0=Hoang Nam, Thanh Van - Xuan va tuoi tre
TTITLE1=Y Lan - Em le chua nay
TTITLE2=Da Nhat Yen - Mot ngay tinh den
TTITLE3=La Suong Suong - Thi tham mua Xuan
TTITLE4=Hoang Nam, Steven, Ky Anh, Hai Phong - Rong choi dem giao thua
TTITLE5=Kim Huyen - Anh mat mua Xuan
TTITLE6=Thuy Vi, Kim Huyen, Da Nhat Yen - Tuoi than tien
TTITLE7=Phuong Hung - Vet thu tren lung ngua hoang
TTITLE8=Trizzie Phuong Trinh - Giac mo buon
TTITLE9=hop ca - Ly ruou mung
EXTD=
EXTT0=
EXTT1=
EXTT2=
EXTT3=
EXTT4=
EXTT5=
EXTT6=
EXTT7=
EXTT8=
EXTT9=
PLAYORDER=
